<?xml version="1.0" encoding="UTF-8"?><svg id="a" xmlns="http://www.w3.org/2000/svg" viewBox="0 0 1920 1080"><defs><style>.b{fill:#231f20;}</style></defs><g><path class="b" d="M447.89,556.26l8.16-16.48c5.95,3.08,11.86,4.62,17.71,4.62,6.98,0,12.14-1.87,15.48-5.62,3.34-3.75,5-9.62,5-17.63v-67.76h21.4v68.53c0,13.24-3.49,23.46-10.47,30.65-6.98,7.19-16.63,10.78-28.95,10.78-10.99,0-20.43-2.36-28.33-7.08Z"/><path class="b" d="M561.23,556.65c-8.52-4.67-15.12-11.24-19.79-19.71-4.67-8.47-7.01-18.19-7.01-29.18s2.39-21.22,7.16-29.8c4.77-8.57,11.5-15.22,20.17-19.94,8.67-4.72,18.71-7.08,30.11-7.08s20.74,2.34,29.26,7.01c8.52,4.67,15.12,11.24,19.79,19.71,4.67,8.47,7.01,18.2,7.01,29.18s-2.39,21.23-7.16,29.8c-4.77,8.57-11.5,15.22-20.17,19.94-8.68,4.72-18.71,7.08-30.11,7.08s-20.74-2.34-29.26-7.01Zm48.05-16.71c5.34-3.08,9.5-7.42,12.47-13.01,2.98-5.59,4.47-11.98,4.47-19.17s-1.46-14.09-4.39-19.79c-2.93-5.7-7.01-10.11-12.24-13.24-5.24-3.13-11.3-4.7-18.17-4.7s-13.14,1.57-18.48,4.7c-5.34,3.13-9.47,7.47-12.4,13.01-2.93,5.55-4.39,11.91-4.39,19.1s1.46,14.09,4.39,19.79c2.93,5.7,7.01,10.11,12.24,13.24,5.24,3.13,11.29,4.7,18.17,4.7s12.99-1.54,18.33-4.62Z"/><path class="b" d="M654.71,453.39h88.85v18.48h-33.88v89.32h-21.25v-89.32h-33.72v-18.48Z"/><path class="b" d="M854.59,561.19h-23.25l-9.09-21.1h-53.13l-9.09,21.1h-22.64l47.12-107.8h22.94l47.12,107.8Zm-77.92-39.58h38.04l-12.17-30.95c-3.39-8.62-5.54-14.32-6.47-17.09h-.46l-3.39,8.62-3.39,8.78-12.17,30.65Z"/><path class="b" d="M921.27,561.19l-36.8-107.8h22.79l15.55,49.74c4.01,12.73,6.78,22.54,8.32,29.41h.46c2.46-9.55,5.44-19.4,8.93-29.57l16.63-49.59h16.94l16.63,49.28c1.84,5.24,3.64,10.7,5.39,16.4,1.75,5.7,3.03,10.19,3.85,13.48h.46c2.78-10.78,5.55-20.74,8.32-29.88l14.94-49.28h22.49l-36.03,107.8h-19.71l-14.17-42.66c-4.31-13.34-7.8-24.43-10.47-33.26h-.46l-5.08,15.55c-1.44,4.72-3.34,10.68-5.7,17.86l-13.86,42.5h-19.4Z"/><path class="b" d="M1078.65,556.65c-8.52-4.67-15.12-11.24-19.79-19.71-4.67-8.47-7.01-18.19-7.01-29.18s2.39-21.22,7.16-29.8c4.77-8.57,11.5-15.22,20.17-19.94,8.67-4.72,18.71-7.08,30.11-7.08s20.74,2.34,29.26,7.01c8.52,4.67,15.12,11.24,19.79,19.71,4.67,8.47,7.01,18.2,7.01,29.18s-2.39,21.23-7.16,29.8c-4.77,8.57-11.5,15.22-20.17,19.94-8.68,4.72-18.71,7.08-30.11,7.08s-20.74-2.34-29.26-7.01Zm48.05-16.71c5.34-3.08,9.49-7.42,12.48-13.01,2.98-5.59,4.46-11.98,4.46-19.17s-1.46-14.09-4.39-19.79c-2.93-5.7-7.01-10.11-12.24-13.24-5.24-3.13-11.29-4.7-18.17-4.7s-13.14,1.57-18.48,4.7c-5.34,3.13-9.47,7.47-12.4,13.01-2.93,5.55-4.39,11.91-4.39,19.1s1.46,14.09,4.39,19.79c2.93,5.7,7.01,10.11,12.24,13.24,5.24,3.13,11.29,4.7,18.17,4.7s12.99-1.54,18.32-4.62Z"/><path class="b" d="M1249.13,561.19l-29.41-36.19h-12.63v36.19h-21.56v-107.8h45.58c7.49,0,14.17,1.49,20.02,4.47,5.85,2.98,10.4,7.16,13.63,12.55,3.23,5.39,4.85,11.58,4.85,18.56,0,8.62-2.34,15.96-7.01,22.02-4.67,6.06-11.11,10.16-19.33,12.32l31.88,37.88h-26.03Zm-5.93-84.62c-3.34-3.13-7.98-4.7-13.94-4.7h-22.33v35.42h22.48c5.95,0,10.57-1.54,13.86-4.62,3.28-3.08,4.93-7.34,4.93-12.78,0-5.75-1.67-10.19-5-13.32Z"/><path class="b" d="M1332.28,505.75l52.05,55.44h-28.34l-31.57-33.72c-5.96-6.78-9.7-11.34-11.24-13.71l-.46,.31c.41,5.34,.62,10.68,.62,16.02v31.11h-21.1v-107.8h21.1v29.26c0,5.24-.21,10.63-.62,16.17l.46,.15c2.26-3.18,6.21-8.01,11.86-14.48l28.03-31.11h26.64l-47.43,52.36Z"/><path class="b" d="M1405.97,559.96c-7.24-2.36-13.73-5.7-19.48-10.01l9.39-16.63c4.93,3.49,10.24,6.24,15.94,8.24s11.37,3,17.02,3c6.57,0,11.88-1.36,15.94-4.08,4.06-2.72,6.08-6.44,6.08-11.16,0-4.1-1.72-7.39-5.16-9.86-3.44-2.46-9.22-4.26-17.33-5.39-13.24-1.74-23-5.08-29.26-10.01-6.26-4.93-9.39-11.75-9.39-20.48,0-6.37,1.72-12.01,5.16-16.94,3.44-4.93,8.21-8.75,14.32-11.47,6.11-2.72,13.06-4.08,20.87-4.08,7.19,0,13.76,.82,19.71,2.46,5.95,1.64,11.91,4.36,17.86,8.16l-9.09,15.86c-4.21-2.77-8.7-4.82-13.47-6.16-4.77-1.33-9.52-2-14.24-2-6.06,0-10.91,1.18-14.55,3.54-3.65,2.36-5.47,5.6-5.47,9.7,0,3.8,1.7,6.7,5.08,8.7,3.39,2,9.08,3.62,17.09,4.85,13.45,1.95,23.33,5.67,29.65,11.16,6.31,5.49,9.47,12.76,9.47,21.79,0,6.88-1.8,12.91-5.39,18.09-3.59,5.18-8.65,9.19-15.17,12.01-6.52,2.82-14.04,4.24-22.56,4.24s-15.78-1.18-23.02-3.54Z"/></g><g><path class="b" d="M599.18,628.11l-15.08-44.74h6.58l7.48,23.52c1.11,3.32,2.49,7.75,4.15,13.29h.13c.64-2.43,1.96-6.8,3.96-13.1l7.73-23.71h5.94l7.73,23.71c1.45,4.43,2.81,8.8,4.09,13.1h.06c1.45-4.98,2.79-9.39,4.03-13.23l7.54-23.58h6.52l-14.96,44.74h-6.52l-6.39-19.88c-1.58-5.11-3.26-10.37-5.05-15.78h-.13c-1.75,5.11-3.45,10.35-5.11,15.72l-6.39,19.94h-6.33Z"/><path class="b" d="M670.18,608.3v14h24.61v5.82h-30.74v-44.74h30.36v5.75h-24.22v13.42h23.07v5.75h-23.07Z"/><path class="b" d="M738.62,604.91c2.26,.77,4.09,2.12,5.5,4.06,1.41,1.94,2.11,4.17,2.11,6.68,0,4.05-1.29,7.14-3.87,9.27-2.58,2.13-6.32,3.2-11.22,3.2h-19.75v-44.74h19.75c4.26,0,7.61,1.07,10.03,3.2,2.43,2.13,3.64,5.05,3.64,8.76,0,2.09-.54,3.96-1.63,5.62-1.09,1.66-2.61,2.92-4.57,3.77v.19Zm-21.09-15.98v13.48h13.42c2.43,0,4.3-.58,5.62-1.76,1.32-1.17,1.98-2.8,1.98-4.89s-.65-3.8-1.95-5.02c-1.3-1.21-3.1-1.82-5.4-1.82h-13.68Zm14.25,33.49c2.6,0,4.61-.65,6.04-1.95,1.43-1.3,2.14-3.1,2.14-5.4s-.74-4.03-2.21-5.3-3.55-1.92-6.23-1.92h-14v14.57h14.25Z"/><path class="b" d="M801.25,583.38c4.39,0,8.28,.93,11.66,2.78,3.39,1.85,6.02,4.46,7.89,7.83,1.87,3.37,2.81,7.24,2.81,11.63s-.95,8.35-2.84,11.76c-1.9,3.41-4.55,6.05-7.96,7.92-3.41,1.87-7.31,2.81-11.7,2.81h-16.42v-44.74h16.55Zm0,38.92c3.15,0,5.95-.69,8.4-2.08,2.45-1.38,4.35-3.31,5.69-5.78,1.34-2.47,2.01-5.33,2.01-8.56s-.68-6.18-2.04-8.69c-1.36-2.51-3.27-4.47-5.72-5.88-2.45-1.41-5.27-2.11-8.47-2.11h-10.29v33.1h10.42Z"/><path class="b" d="M845.67,608.3v14h24.6v5.82h-30.74v-44.74h30.36v5.75h-24.22v13.42h23.07v5.75h-23.07Z"/><path class="b" d="M899.8,628.11l-18.09-44.74h6.71l9.39,23.52c1.7,4.35,3.47,9.01,5.3,14h.13c1.07-3.15,2.81-7.82,5.24-14l9.39-23.52h6.58l-18.09,44.74h-6.58Z"/><path class="b" d="M944.41,608.3v14h24.6v5.82h-30.74v-44.74h30.35v5.75h-24.22v13.42h23.07v5.75h-23.07Z"/><path class="b" d="M991.76,583.38v38.98h24.09v5.75h-30.23v-44.74h6.14Z"/><path class="b" d="M1036.53,626.13c-3.43-1.96-6.1-4.7-8.02-8.21-1.92-3.52-2.88-7.53-2.88-12.05s.96-8.68,2.88-12.24c1.92-3.56,4.62-6.32,8.11-8.28,3.49-1.96,7.5-2.94,12.02-2.94s8.3,.98,11.73,2.94c3.43,1.96,6.1,4.7,8.02,8.21,1.92,3.51,2.88,7.53,2.88,12.05s-.96,8.68-2.88,12.24c-1.92,3.56-4.62,6.32-8.11,8.28-3.49,1.96-7.5,2.94-12.02,2.94s-8.3-.98-11.73-2.94Zm20.39-5.08c2.49-1.47,4.44-3.52,5.85-6.17,1.41-2.64,2.11-5.64,2.11-9.01s-.68-6.57-2.04-9.23c-1.36-2.66-3.29-4.73-5.78-6.2-2.49-1.47-5.34-2.21-8.53-2.21s-6.05,.74-8.57,2.21c-2.51,1.47-4.46,3.51-5.85,6.14-1.38,2.62-2.08,5.63-2.08,9.04s.69,6.51,2.08,9.17c1.39,2.66,3.32,4.74,5.78,6.23,2.47,1.49,5.31,2.24,8.5,2.24s6.04-.74,8.53-2.21Z"/><path class="b" d="M1105.71,583.38c3.45,0,6.36,.7,8.72,2.11,2.37,1.41,4.12,3.27,5.27,5.59,1.15,2.32,1.73,4.85,1.73,7.57s-.58,5.33-1.73,7.67c-1.15,2.34-2.91,4.23-5.27,5.65-2.36,1.43-5.27,2.14-8.72,2.14h-12.4v14h-6.14v-44.74h18.53Zm-.32,24.99c3.28,0,5.73-.92,7.35-2.75s2.43-4.09,2.43-6.78-.81-5.08-2.43-6.93c-1.62-1.85-4.07-2.78-7.35-2.78h-12.08v19.24h12.08Z"/><path class="b" d="M1176.52,583.38h6.2v44.74h-6.2v-30.23c0-1.11,.04-2.34,.13-3.71l-.13-.06c-1.06,1.7-2.06,3.24-3,4.6l-12.97,19.56h-2.43l-12.91-19.49c-1.11-1.75-2.11-3.2-3-4.35l-.13,.06c.08,1.36,.13,2.6,.13,3.71v29.91h-6.14v-44.74h6.14l17.19,26.07,17.13-26.07Z"/><path class="b" d="M1207.71,608.3v14h24.6v5.82h-30.74v-44.74h30.35v5.75h-24.22v13.42h23.07v5.75h-23.07Z"/><path class="b" d="M1248.93,628.11v-44.74h6.01l21.92,30.04c1.75,2.39,2.83,3.92,3.26,4.6l.13-.06c-.09-1.36-.13-2.6-.13-3.71v-30.87h6.2v44.74h-6.01l-21.98-30.04c-1.75-2.39-2.83-3.92-3.26-4.6l-.13,.06c.08,1.36,.13,2.6,.13,3.71v30.87h-6.14Z"/><path class="b" d="M1299.99,583.38h35.92v5.62h-14.89v39.11h-6.14v-39.11h-14.89v-5.62Z"/></g></svg>