<?xml version="1.0" encoding="UTF-8"?><svg id="a" xmlns="http://www.w3.org/2000/svg" viewBox="0 0 1920 1080"><defs><style>.b{fill:#231f20;}</style></defs><g><path class="b" d="M791.17,581.89c0,30.34-9.82,46.07-18.72,54.12,27.99-3.64,56.19-25.98,56.19-56.91v-135.23h-37.47v138.02Z"/><polygon class="b" points="977.54 467.66 971.59 443.87 929.81 443.87 923.88 467.66 902.74 552.38 898.87 567.85 895.01 552.38 873.86 467.66 867.91 443.87 828.65 443.87 879.2 636.13 918.54 636.13 946.86 528.41 950.7 513.76 954.56 528.41 970.49 589 989.17 514.21 977.54 467.66"/><circle class="b" cx="731.76" cy="592.18" r="21.86" transform="translate(-204.41 690.88) rotate(-45)"/><path class="b" d="M1198.02,489.46c-8.07-14.46-19.34-25.68-33.79-33.65-14.46-7.97-31.21-11.94-50.25-11.94h-80.6l-5.93,23.79-32.81,131.47-2.01,8-.2-.28-7.41,29.27h37.07l42.76-162.6h48.59c12.8,0,24.06,2.8,33.77,8.39,9.71,5.59,17.21,13.45,22.53,23.62,5.3,10.15,7.97,21.84,7.97,35.01s-2.67,24.48-7.97,34.47c-5.32,9.98-12.78,17.72-22.4,23.2-9.6,5.51-20.72,8.24-33.35,8.24h-59.31l-7.8,29.68h66.56c19.04,0,35.88-4.04,50.52-12.08,14.65-8.05,26-19.42,34.07-34.07,8.05-14.65,12.08-31.48,12.08-50.52s-4.04-35.52-12.08-50Z"/></g><g><path class="b" d="M686.65,464.55c-1.76,0-3.36,.48-4.79,1.44l-122.01,64.48c-1.28,.96-2.24,2-2.88,3.12l-.96,1.92c-.8,2.24-.64,4.56,.48,6.95,.8,1.76,1.92,2.96,3.36,3.6l122.01,67.84c1.44,.96,2.88,1.44,4.32,1.44,3.19,0,5.67-1.52,7.43-4.56,1.28-1.92,1.64-4.07,1.08-6.47-.56-2.4-1.96-4.23-4.19-5.51l-108.11-60.17,108.59-57.29c2.24-1.28,3.6-3.15,4.07-5.63,.48-2.47,.08-4.67-1.2-6.59-1.76-3.04-4.16-4.56-7.19-4.56Z"/><path class="b" d="M1233.35,464.55c1.76,0,3.36,.48,4.79,1.44l122.01,64.48c1.28,.96,2.24,2,2.88,3.12l.96,1.92c.8,2.24,.64,4.56-.48,6.95-.8,1.76-1.92,2.96-3.36,3.6l-122.01,67.84c-1.44,.96-2.88,1.44-4.32,1.44-3.19,0-5.67-1.52-7.43-4.56-1.28-1.92-1.64-4.07-1.08-6.47,.56-2.4,1.96-4.23,4.19-5.51l108.11-60.17-108.59-57.29c-2.24-1.28-3.6-3.15-4.07-5.63-.48-2.47-.08-4.67,1.2-6.59,1.76-3.04,4.16-4.56,7.19-4.56Z"/></g></svg>