<?xml version="1.0" encoding="UTF-8"?><svg id="a" xmlns="http://www.w3.org/2000/svg" viewBox="0 0 1920 1080"><defs><style>.b{fill:#fff;}</style></defs><g><path class="b" d="M512.83,653.37l7.13-14.39c5.2,2.69,10.35,4.03,15.46,4.03,6.1,0,10.6-1.64,13.51-4.91,2.91-3.27,4.37-8.4,4.37-15.4v-59.17h18.69v59.84c0,11.56-3.05,20.49-9.14,26.76-6.1,6.28-14.52,9.41-25.28,9.41-9.59,0-17.84-2.06-24.74-6.18Z"/><path class="b" d="M611.8,653.71c-7.44-4.08-13.2-9.82-17.28-17.21-4.08-7.4-6.12-15.89-6.12-25.48s2.08-18.53,6.25-26.02c4.17-7.48,10.04-13.29,17.62-17.41,7.57-4.12,16.34-6.19,26.29-6.19s18.11,2.04,25.55,6.12c7.44,4.08,13.2,9.82,17.28,17.21,4.08,7.4,6.12,15.89,6.12,25.48s-2.08,18.54-6.25,26.02c-4.17,7.49-10.04,13.29-17.62,17.41-7.58,4.12-16.34,6.19-26.29,6.19s-18.11-2.04-25.55-6.12Zm41.95-14.59c4.66-2.69,8.29-6.48,10.89-11.36,2.6-4.89,3.9-10.47,3.9-16.74s-1.28-12.3-3.83-17.28c-2.56-4.97-6.12-8.83-10.69-11.56-4.57-2.73-9.86-4.1-15.87-4.1s-11.48,1.37-16.14,4.1c-4.66,2.73-8.27,6.52-10.82,11.36-2.55,4.84-3.83,10.4-3.83,16.67s1.28,12.3,3.83,17.28c2.56,4.97,6.12,8.83,10.69,11.56,4.57,2.74,9.86,4.1,15.87,4.1s11.34-1.35,16-4.03Z"/><path class="b" d="M693.42,563.55h77.59v16.14h-29.58v77.99h-18.56v-77.99h-29.45v-16.14Z"/><path class="b" d="M867.96,657.68h-20.31l-7.93-18.42h-46.39l-7.93,18.42h-19.77l41.15-94.13h20.04l41.15,94.13Zm-68.04-34.56h33.21l-10.62-27.03c-2.96-7.53-4.84-12.51-5.65-14.93h-.4l-2.96,7.53-2.96,7.67-10.62,26.76Z"/><path class="b" d="M926.18,657.68l-32.14-94.13h19.9l13.58,43.43c3.5,11.12,5.92,19.68,7.26,25.68h.4c2.15-8.34,4.75-16.94,7.8-25.82l14.52-43.3h14.79l14.52,43.03c1.61,4.57,3.18,9.35,4.71,14.32,1.52,4.98,2.64,8.9,3.36,11.77h.4c2.42-9.41,4.84-18.11,7.26-26.09l13.04-43.03h19.63l-31.46,94.13h-17.21l-12.37-37.25c-3.76-11.65-6.81-21.33-9.14-29.04h-.4l-4.44,13.58c-1.26,4.12-2.92,9.32-4.98,15.6l-12.1,37.11h-16.94Z"/><path class="b" d="M1063.61,653.71c-7.44-4.08-13.2-9.82-17.28-17.21-4.08-7.4-6.12-15.89-6.12-25.48s2.08-18.53,6.25-26.02c4.17-7.48,10.04-13.29,17.62-17.41,7.57-4.12,16.34-6.19,26.29-6.19s18.11,2.04,25.55,6.12c7.44,4.08,13.2,9.82,17.28,17.21,4.08,7.4,6.12,15.89,6.12,25.48s-2.08,18.54-6.25,26.02c-4.17,7.49-10.04,13.29-17.62,17.41-7.58,4.12-16.34,6.19-26.29,6.19s-18.11-2.04-25.55-6.12Zm41.95-14.59c4.66-2.69,8.29-6.48,10.89-11.36,2.6-4.89,3.9-10.47,3.9-16.74s-1.28-12.3-3.83-17.28c-2.55-4.97-6.12-8.83-10.69-11.56-4.57-2.73-9.86-4.1-15.87-4.1s-11.47,1.37-16.14,4.1c-4.66,2.73-8.27,6.52-10.82,11.36-2.55,4.84-3.83,10.4-3.83,16.67s1.28,12.3,3.83,17.28c2.55,4.97,6.12,8.83,10.69,11.56,4.57,2.74,9.86,4.1,15.87,4.1s11.34-1.35,16-4.03Z"/><path class="b" d="M1212.46,657.68l-25.68-31.6h-11.03v31.6h-18.83v-94.13h39.8c6.54,0,12.37,1.3,17.48,3.9,5.11,2.6,9.08,6.25,11.9,10.96,2.82,4.71,4.24,10.11,4.24,16.2,0,7.53-2.04,13.94-6.12,19.23-4.08,5.29-9.7,8.87-16.87,10.76l27.83,33.08h-22.73Zm-5.18-73.89c-2.91-2.73-6.97-4.1-12.17-4.1h-19.5v30.93h19.63c5.2,0,9.23-1.35,12.1-4.03,2.87-2.69,4.3-6.41,4.3-11.16,0-5.02-1.46-8.9-4.37-11.63Z"/><path class="b" d="M1285.07,609.27l45.45,48.41h-24.74l-27.56-29.45c-5.2-5.92-8.47-9.9-9.82-11.97l-.4,.27c.36,4.66,.54,9.32,.54,13.99v27.16h-18.42v-94.13h18.42v25.55c0,4.57-.18,9.28-.54,14.12l.4,.13c1.97-2.78,5.42-6.99,10.35-12.64l24.47-27.16h23.26l-41.42,45.72Z"/><path class="b" d="M1349.42,656.6c-6.32-2.06-11.99-4.98-17.01-8.74l8.2-14.52c4.3,3.05,8.94,5.45,13.92,7.19s9.93,2.62,14.86,2.62c5.74,0,10.37-1.19,13.92-3.56,3.54-2.37,5.31-5.62,5.31-9.75,0-3.58-1.5-6.45-4.5-8.61-3-2.15-8.05-3.72-15.13-4.71-11.56-1.52-20.08-4.44-25.55-8.74-5.47-4.3-8.2-10.26-8.2-17.88,0-5.56,1.5-10.49,4.51-14.79,3-4.3,7.17-7.64,12.5-10.02,5.33-2.37,11.41-3.56,18.22-3.56,6.28,0,12.01,.72,17.21,2.15,5.2,1.43,10.4,3.81,15.6,7.13l-7.93,13.85c-3.67-2.42-7.6-4.21-11.77-5.38-4.17-1.16-8.32-1.75-12.44-1.75-5.29,0-9.53,1.03-12.71,3.09-3.18,2.06-4.77,4.89-4.77,8.47,0,3.32,1.48,5.85,4.44,7.6,2.96,1.75,7.93,3.16,14.92,4.24,11.74,1.7,20.37,4.95,25.89,9.75,5.51,4.8,8.27,11.14,8.27,19.03,0,6.01-1.57,11.27-4.71,15.8-3.14,4.53-7.55,8.02-13.24,10.49-5.69,2.47-12.26,3.7-19.7,3.7s-13.78-1.03-20.1-3.09Z"/></g><g><path class="b" d="M644.93,716.11l-13.17-39.06h5.75l6.53,20.54c.97,2.9,2.18,6.77,3.63,11.61h.11c.56-2.12,1.71-5.93,3.46-11.44l6.75-20.7h5.19l6.75,20.7c1.26,3.87,2.45,7.68,3.57,11.44h.06c1.26-4.35,2.44-8.2,3.51-11.55l6.59-20.59h5.69l-13.06,39.06h-5.69l-5.58-17.36c-1.38-4.46-2.85-9.06-4.41-13.78h-.11c-1.53,4.46-3.01,9.04-4.46,13.73l-5.58,17.41h-5.52Z"/><path class="b" d="M706.93,698.81v12.22h21.49v5.08h-26.84v-39.06h26.51v5.02h-21.15v11.72h20.15v5.02h-20.15Z"/><path class="b" d="M766.7,695.86c1.97,.67,3.57,1.85,4.8,3.54,1.23,1.69,1.84,3.64,1.84,5.83,0,3.54-1.13,6.23-3.38,8.09-2.25,1.86-5.52,2.79-9.79,2.79h-17.24v-39.06h17.24c3.72,0,6.64,.93,8.76,2.79,2.12,1.86,3.18,4.41,3.18,7.65,0,1.82-.47,3.46-1.42,4.91-.95,1.45-2.28,2.55-3.99,3.29v.17Zm-18.42-13.95v11.77h11.72c2.12,0,3.76-.51,4.91-1.53,1.15-1.02,1.73-2.45,1.73-4.27s-.57-3.32-1.7-4.38c-1.13-1.06-2.71-1.59-4.72-1.59h-11.94Zm12.44,29.24c2.27,0,4.03-.57,5.27-1.7,1.25-1.13,1.87-2.71,1.87-4.72s-.64-3.51-1.93-4.63-3.1-1.67-5.44-1.67h-12.22v12.72h12.44Z"/><path class="b" d="M821.38,677.05c3.83,0,7.23,.81,10.18,2.43,2.96,1.62,5.25,3.9,6.89,6.84,1.64,2.94,2.45,6.33,2.45,10.16s-.83,7.29-2.48,10.27-3.97,5.28-6.95,6.92c-2.98,1.64-6.38,2.45-10.21,2.45h-14.34v-39.06h14.45Zm0,33.98c2.75,0,5.2-.6,7.34-1.81,2.14-1.21,3.79-2.89,4.97-5.05,1.17-2.16,1.76-4.65,1.76-7.48s-.6-5.39-1.78-7.59c-1.19-2.2-2.86-3.91-5-5.13-2.14-1.23-4.6-1.84-7.39-1.84h-8.98v28.91h9.1Z"/><path class="b" d="M860.17,698.81v12.22h21.48v5.08h-26.84v-39.06h26.51v5.02h-21.15v11.72h20.14v5.02h-20.14Z"/><path class="b" d="M907.43,716.11l-15.79-39.06h5.86l8.2,20.54c1.49,3.79,3.03,7.87,4.63,12.22h.11c.93-2.75,2.45-6.83,4.58-12.22l8.2-20.54h5.75l-15.79,39.06h-5.75Z"/><path class="b" d="M946.38,698.81v12.22h21.48v5.08h-26.84v-39.06h26.51v5.02h-21.15v11.72h20.15v5.02h-20.15Z"/><path class="b" d="M987.74,677.05v34.04h21.04v5.02h-26.4v-39.06h5.36Z"/><path class="b" d="M1026.83,714.38c-3-1.71-5.33-4.1-7-7.17-1.67-3.07-2.51-6.58-2.51-10.52s.84-7.58,2.51-10.69c1.67-3.11,4.04-5.51,7.09-7.23,3.05-1.71,6.55-2.57,10.49-2.57s7.24,.86,10.24,2.57c2.99,1.71,5.33,4.1,7,7.17,1.67,3.07,2.51,6.58,2.51,10.52s-.84,7.58-2.51,10.69c-1.67,3.11-4.04,5.52-7.09,7.23-3.05,1.71-6.55,2.57-10.49,2.57s-7.24-.86-10.24-2.57Zm17.8-4.44c2.18-1.28,3.88-3.08,5.11-5.39,1.23-2.31,1.84-4.93,1.84-7.87s-.6-5.74-1.78-8.06c-1.19-2.33-2.87-4.13-5.05-5.41-2.18-1.28-4.66-1.93-7.45-1.93s-5.28,.64-7.48,1.93c-2.19,1.28-3.9,3.07-5.11,5.36-1.21,2.29-1.81,4.92-1.81,7.9s.61,5.68,1.81,8.01c1.21,2.33,2.89,4.14,5.05,5.44,2.16,1.3,4.63,1.95,7.42,1.95s5.27-.64,7.45-1.93Z"/><path class="b" d="M1087.23,677.05c3.01,0,5.55,.61,7.62,1.84,2.07,1.23,3.6,2.86,4.6,4.88,1,2.03,1.51,4.23,1.51,6.61s-.5,4.65-1.51,6.7c-1,2.05-2.54,3.69-4.6,4.94-2.06,1.25-4.6,1.87-7.62,1.87h-10.82v12.22h-5.36v-39.06h16.18Zm-.28,21.82c2.86,0,5-.8,6.42-2.4s2.12-3.57,2.12-5.92-.71-4.44-2.12-6.05c-1.41-1.62-3.55-2.43-6.42-2.43h-10.55v16.8h10.55Z"/><path class="b" d="M1149.06,677.05h5.41v39.06h-5.41v-26.4c0-.97,.04-2.05,.11-3.24l-.11-.05c-.93,1.49-1.8,2.83-2.62,4.02l-11.33,17.08h-2.12l-11.27-17.02c-.97-1.53-1.84-2.79-2.62-3.79l-.11,.05c.07,1.19,.11,2.27,.11,3.24v26.12h-5.36v-39.06h5.36l15.01,22.77,14.95-22.77Z"/><path class="b" d="M1176.3,698.81v12.22h21.48v5.08h-26.84v-39.06h26.51v5.02h-21.15v11.72h20.15v5.02h-20.15Z"/><path class="b" d="M1212.29,716.11v-39.06h5.24l19.14,26.23c1.53,2.08,2.48,3.42,2.85,4.02l.11-.06c-.08-1.19-.11-2.27-.11-3.24v-26.95h5.41v39.06h-5.24l-19.2-26.23c-1.53-2.08-2.48-3.42-2.85-4.02l-.11,.06c.07,1.19,.11,2.27,.11,3.24v26.95h-5.36Z"/><path class="b" d="M1256.88,677.05h31.36v4.91h-13v34.15h-5.36v-34.15h-13v-4.91Z"/></g><g><path class="b" d="M794.08,482.6c0,26.28-8.5,39.91-16.21,46.88,24.25-3.16,48.67-22.51,48.67-49.29v-117.14h-32.46v119.55Z"/><polygon class="b" points="955.51 383.66 950.36 363.05 914.17 363.05 909.03 383.66 890.72 457.04 887.37 470.44 884.03 457.04 865.71 383.66 860.55 363.05 826.54 363.05 870.33 529.58 904.41 529.58 928.94 436.28 932.26 423.59 935.61 436.28 949.41 488.76 965.58 423.98 955.51 383.66"/><circle class="b" cx="742.62" cy="491.52" r="18.94" transform="translate(-130.05 669.07) rotate(-45)"/><path class="b" d="M1146.49,402.54c-6.99-12.52-16.75-22.25-29.27-29.15-12.52-6.9-27.03-10.34-43.53-10.34h-69.82l-5.14,20.61-28.42,113.88-1.74,6.93-.17-.24-6.42,25.35h32.11l37.03-140.84h42.09c11.09,0,20.84,2.42,29.25,7.26,8.41,4.84,14.91,11.65,19.52,20.46,4.59,8.79,6.9,18.91,6.9,30.33s-2.31,21.21-6.9,29.85c-4.61,8.65-11.07,15.35-19.41,20.1-8.32,4.77-17.95,7.14-28.89,7.14h-51.37l-6.75,25.7h57.65c16.49,0,31.07-3.5,43.76-10.47,12.69-6.97,22.52-16.82,29.51-29.51,6.97-12.69,10.47-27.27,10.47-43.76s-3.5-30.77-10.47-43.31Z"/></g><g><path class="b" d="M703.54,380.97c-1.52,0-2.91,.42-4.15,1.25l-105.68,55.85c-1.11,.83-1.94,1.73-2.49,2.7l-.83,1.66c-.69,1.94-.55,3.95,.41,6.02,.69,1.53,1.66,2.56,2.91,3.11l105.68,58.76c1.25,.83,2.49,1.25,3.74,1.25,2.77,0,4.91-1.31,6.44-3.95,1.11-1.66,1.42-3.53,.94-5.6-.49-2.08-1.7-3.67-3.63-4.78l-93.64-52.11,94.06-49.63c1.94-1.11,3.11-2.73,3.53-4.88,.42-2.14,.07-4.05-1.04-5.71-1.53-2.63-3.6-3.95-6.23-3.95Z"/><path class="b" d="M1177.09,380.97c1.52,0,2.91,.42,4.15,1.25l105.68,55.85c1.11,.83,1.94,1.73,2.49,2.7l.83,1.66c.69,1.94,.55,3.95-.41,6.02-.69,1.53-1.66,2.56-2.91,3.11l-105.68,58.76c-1.25,.83-2.49,1.25-3.74,1.25-2.77,0-4.91-1.31-6.44-3.95-1.11-1.66-1.42-3.53-.94-5.6,.49-2.08,1.7-3.67,3.63-4.78l93.64-52.11-94.06-49.63c-1.94-1.11-3.11-2.73-3.53-4.88-.42-2.14-.07-4.05,1.04-5.71,1.53-2.63,3.6-3.95,6.23-3.95Z"/></g></svg>