<?xml version="1.0" encoding="UTF-8"?><svg id="a" xmlns="http://www.w3.org/2000/svg" viewBox="0 0 1920 1080"><defs><style>.b{fill:#231f20;}</style></defs><g><path class="b" d="M533.51,648.13l6.8-13.72c4.96,2.56,9.88,3.85,14.75,3.85,5.81,0,10.11-1.56,12.89-4.68,2.78-3.12,4.17-8.02,4.17-14.68v-56.43h17.83v57.07c0,11.03-2.91,19.54-8.72,25.52-5.82,5.99-13.85,8.98-24.11,8.98-9.15,0-17.01-1.97-23.6-5.9Z"/><path class="b" d="M627.9,648.45c-7.1-3.89-12.59-9.36-16.48-16.42-3.89-7.05-5.84-15.15-5.84-24.3s1.99-17.68,5.96-24.82c3.98-7.14,9.57-12.67,16.8-16.61,7.22-3.93,15.58-5.9,25.07-5.9s17.27,1.95,24.37,5.84c7.1,3.89,12.59,9.36,16.48,16.42,3.89,7.05,5.84,15.16,5.84,24.3s-1.99,17.68-5.96,24.82c-3.98,7.14-9.58,12.68-16.8,16.61-7.23,3.93-15.58,5.9-25.07,5.9s-17.27-1.95-24.37-5.84Zm40.01-13.92c4.44-2.57,7.91-6.18,10.39-10.84,2.48-4.66,3.72-9.98,3.72-15.97s-1.22-11.73-3.65-16.48c-2.44-4.74-5.84-8.42-10.2-11.03-4.36-2.61-9.41-3.91-15.13-3.91s-10.95,1.3-15.39,3.91c-4.45,2.61-7.89,6.22-10.32,10.84-2.44,4.62-3.65,9.92-3.65,15.9s1.22,11.73,3.65,16.48c2.44,4.74,5.84,8.42,10.2,11.03,4.36,2.61,9.4,3.91,15.13,3.91s10.82-1.28,15.26-3.85Z"/><path class="b" d="M705.75,562.46h74v15.39h-28.21v74.38h-17.7v-74.38h-28.09v-15.39Z"/><path class="b" d="M872.22,652.23h-19.37l-7.57-17.57h-44.25l-7.57,17.57h-18.85l39.24-89.77h19.11l39.24,89.77Zm-64.89-32.96h31.68l-10.13-25.78c-2.82-7.18-4.62-11.93-5.39-14.24h-.39l-2.82,7.18-2.82,7.31-10.13,25.52Z"/><path class="b" d="M927.75,652.23l-30.65-89.77h18.98l12.95,41.42c3.34,10.6,5.64,18.77,6.93,24.5h.39c2.05-7.95,4.53-16.16,7.44-24.62l13.85-41.3h14.11l13.85,41.04c1.54,4.36,3.03,8.91,4.49,13.66,1.45,4.75,2.52,8.49,3.2,11.22h.39c2.31-8.98,4.62-17.27,6.93-24.88l12.44-41.04h18.73l-30.01,89.77h-16.42l-11.8-35.52c-3.59-11.11-6.5-20.35-8.72-27.7h-.39l-4.23,12.95c-1.2,3.93-2.78,8.89-4.75,14.88l-11.54,35.4h-16.16Z"/><path class="b" d="M1058.82,648.45c-7.1-3.89-12.59-9.36-16.48-16.42-3.89-7.05-5.84-15.15-5.84-24.3s1.99-17.68,5.96-24.82c3.98-7.14,9.58-12.67,16.8-16.61,7.22-3.93,15.58-5.9,25.07-5.9s17.27,1.95,24.37,5.84c7.1,3.89,12.59,9.36,16.48,16.42,3.89,7.05,5.84,15.16,5.84,24.3s-1.99,17.68-5.96,24.82c-3.98,7.14-9.58,12.68-16.8,16.61-7.23,3.93-15.58,5.9-25.07,5.9s-17.27-1.95-24.37-5.84Zm40.01-13.92c4.45-2.57,7.91-6.18,10.39-10.84,2.48-4.66,3.72-9.98,3.72-15.97s-1.22-11.73-3.65-16.48c-2.44-4.74-5.84-8.42-10.2-11.03-4.36-2.61-9.4-3.91-15.13-3.91s-10.94,1.3-15.39,3.91c-4.45,2.61-7.89,6.22-10.32,10.84-2.44,4.62-3.65,9.92-3.65,15.9s1.22,11.73,3.65,16.48c2.44,4.74,5.84,8.42,10.2,11.03,4.36,2.61,9.4,3.91,15.13,3.91s10.81-1.28,15.26-3.85Z"/><path class="b" d="M1200.79,652.23l-24.5-30.14h-10.52v30.14h-17.96v-89.77h37.96c6.24,0,11.8,1.24,16.67,3.72,4.88,2.48,8.66,5.96,11.35,10.45s4.04,9.64,4.04,15.45c0,7.18-1.95,13.3-5.84,18.34-3.89,5.05-9.26,8.46-16.09,10.26l26.55,31.55h-21.67Zm-4.94-70.47c-2.78-2.61-6.65-3.91-11.61-3.91h-18.59v29.5h18.72c4.96,0,8.8-1.28,11.54-3.85,2.73-2.57,4.1-6.11,4.1-10.64,0-4.79-1.39-8.48-4.17-11.09Z"/><path class="b" d="M1270.04,606.06l43.35,46.17h-23.6l-26.29-28.09c-4.96-5.64-8.08-9.45-9.36-11.41l-.39,.26c.34,4.45,.51,8.89,.51,13.34v25.91h-17.57v-89.77h17.57v24.37c0,4.36-.17,8.85-.51,13.47l.39,.13c1.88-2.65,5.17-6.67,9.88-12.06l23.34-25.91h22.19l-39.5,43.6Z"/><path class="b" d="M1331.4,651.21c-6.03-1.97-11.44-4.75-16.22-8.34l7.82-13.85c4.1,2.91,8.53,5.19,13.27,6.86s9.47,2.5,14.17,2.5c5.47,0,9.89-1.13,13.27-3.4,3.38-2.26,5.07-5.36,5.07-9.3,0-3.42-1.43-6.16-4.29-8.21-2.87-2.05-7.68-3.55-14.43-4.49-11.03-1.45-19.15-4.23-24.37-8.34-5.22-4.1-7.82-9.79-7.82-17.06,0-5.3,1.43-10,4.3-14.11,2.86-4.1,6.84-7.29,11.93-9.55,5.09-2.26,10.88-3.4,17.38-3.4,5.99,0,11.46,.69,16.42,2.05,4.96,1.37,9.92,3.64,14.88,6.8l-7.57,13.21c-3.5-2.31-7.25-4.02-11.22-5.13-3.98-1.11-7.93-1.67-11.86-1.67-5.05,0-9.08,.98-12.12,2.95-3.04,1.97-4.55,4.66-4.55,8.08,0,3.16,1.41,5.58,4.23,7.25,2.82,1.67,7.57,3.01,14.23,4.04,11.2,1.62,19.43,4.73,24.69,9.3,5.26,4.58,7.89,10.63,7.89,18.15,0,5.73-1.5,10.75-4.49,15.07-2.99,4.32-7.2,7.65-12.63,10-5.43,2.35-11.69,3.53-18.79,3.53s-13.15-.98-19.17-2.95Z"/></g><g><path class="b" d="M659.5,707.97l-12.56-37.26h5.48l6.23,19.59c.92,2.77,2.08,6.46,3.46,11.07h.11c.53-2.02,1.63-5.66,3.3-10.91l6.44-19.75h4.95l6.44,19.75c1.21,3.69,2.34,7.33,3.41,10.91h.05c1.21-4.15,2.32-7.82,3.35-11.02l6.28-19.64h5.43l-12.46,37.26h-5.43l-5.32-16.55c-1.31-4.26-2.71-8.64-4.2-13.15h-.11c-1.46,4.26-2.87,8.62-4.26,13.09l-5.32,16.61h-5.27Z"/><path class="b" d="M718.64,691.47v11.66h20.49v4.84h-25.6v-37.26h25.28v4.79h-20.17v11.18h19.21v4.79h-19.21Z"/><path class="b" d="M775.64,688.65c1.88,.64,3.41,1.76,4.58,3.38,1.17,1.61,1.76,3.47,1.76,5.56,0,3.37-1.07,5.94-3.22,7.72-2.15,1.77-5.26,2.66-9.34,2.66h-16.45v-37.26h16.45c3.55,0,6.33,.89,8.36,2.66,2.02,1.78,3.03,4.2,3.03,7.29,0,1.74-.45,3.3-1.36,4.68-.9,1.38-2.17,2.43-3.81,3.14v.16Zm-17.56-13.31v11.23h11.18c2.02,0,3.58-.49,4.68-1.46,1.1-.98,1.65-2.33,1.65-4.07s-.54-3.17-1.62-4.18c-1.08-1.01-2.58-1.52-4.5-1.52h-11.39Zm11.87,27.89c2.16,0,3.84-.54,5.03-1.62,1.19-1.08,1.78-2.58,1.78-4.5s-.61-3.35-1.84-4.42-2.95-1.6-5.19-1.6h-11.66v12.14h11.87Z"/><path class="b" d="M827.8,670.71c3.65,0,6.89,.77,9.71,2.32,2.82,1.54,5.01,3.72,6.57,6.52,1.56,2.8,2.34,6.03,2.34,9.69s-.79,6.95-2.37,9.79-3.79,5.04-6.63,6.6c-2.84,1.56-6.09,2.34-9.74,2.34h-13.68v-37.26h13.79Zm0,32.41c2.62,0,4.96-.58,7-1.73,2.04-1.15,3.62-2.76,4.74-4.82,1.12-2.06,1.68-4.44,1.68-7.13s-.57-5.14-1.7-7.24c-1.14-2.09-2.72-3.73-4.76-4.9-2.04-1.17-4.39-1.76-7.05-1.76h-8.57v27.57h8.68Z"/><path class="b" d="M864.78,691.47v11.66h20.49v4.84h-25.6v-37.26h25.28v4.79h-20.17v11.18h19.21v4.79h-19.21Z"/><path class="b" d="M909.87,707.97l-15.06-37.26h5.59l7.82,19.59c1.42,3.62,2.89,7.5,4.42,11.66h.11c.89-2.63,2.34-6.51,4.37-11.66l7.82-19.59h5.48l-15.06,37.26h-5.48Z"/><path class="b" d="M947.01,691.47v11.66h20.49v4.84h-25.6v-37.26h25.28v4.79h-20.17v11.18h19.21v4.79h-19.21Z"/><path class="b" d="M986.45,670.71v32.47h20.06v4.79h-25.17v-37.26h5.11Z"/><path class="b" d="M1023.73,706.32c-2.86-1.63-5.08-3.91-6.68-6.84-1.6-2.93-2.39-6.27-2.39-10.03s.8-7.23,2.39-10.19c1.6-2.96,3.85-5.26,6.76-6.89,2.91-1.63,6.25-2.45,10.01-2.45s6.91,.82,9.77,2.45c2.86,1.63,5.08,3.91,6.68,6.84,1.6,2.93,2.39,6.27,2.39,10.03s-.8,7.23-2.39,10.19c-1.6,2.96-3.85,5.26-6.76,6.89-2.91,1.63-6.25,2.45-10.01,2.45s-6.91-.82-9.77-2.45Zm16.98-4.23c2.08-1.22,3.7-2.94,4.87-5.14,1.17-2.2,1.76-4.7,1.76-7.5s-.57-5.47-1.7-7.69c-1.14-2.22-2.74-3.94-4.82-5.16-2.08-1.22-4.44-1.84-7.1-1.84s-5.04,.61-7.13,1.84c-2.09,1.22-3.72,2.93-4.87,5.11-1.15,2.18-1.73,4.69-1.73,7.53s.58,5.42,1.73,7.64c1.15,2.22,2.76,3.95,4.82,5.19,2.06,1.24,4.42,1.86,7.08,1.86s5.03-.61,7.1-1.84Z"/><path class="b" d="M1081.35,670.71c2.88,0,5.3,.59,7.27,1.76,1.97,1.17,3.43,2.72,4.39,4.66,.96,1.94,1.44,4.04,1.44,6.31s-.48,4.44-1.44,6.39c-.96,1.95-2.42,3.52-4.39,4.71-1.97,1.19-4.39,1.78-7.27,1.78h-10.32v11.66h-5.11v-37.26h15.43Zm-.27,20.81c2.73,0,4.77-.76,6.12-2.29s2.02-3.41,2.02-5.64-.67-4.23-2.02-5.77c-1.35-1.54-3.39-2.32-6.12-2.32h-10.06v16.02h10.06Z"/><path class="b" d="M1140.32,670.71h5.16v37.26h-5.16v-25.17c0-.92,.04-1.95,.11-3.09l-.11-.05c-.89,1.42-1.72,2.7-2.5,3.83l-10.8,16.29h-2.02l-10.75-16.23c-.92-1.45-1.76-2.66-2.5-3.62l-.11,.05c.07,1.14,.11,2.17,.11,3.09v24.91h-5.11v-37.26h5.11l14.32,21.71,14.26-21.71Z"/><path class="b" d="M1166.29,691.47v11.66h20.49v4.84h-25.6v-37.26h25.28v4.79h-20.17v11.18h19.21v4.79h-19.21Z"/><path class="b" d="M1200.62,707.97v-37.26h5l18.26,25.01c1.46,1.99,2.36,3.27,2.71,3.83l.11-.05c-.07-1.14-.11-2.16-.11-3.09v-25.71h5.16v37.26h-5l-18.31-25.01c-1.46-1.99-2.36-3.26-2.71-3.83l-.11,.05c.07,1.14,.11,2.16,.11,3.09v25.71h-5.11Z"/><path class="b" d="M1243.15,670.71h29.91v4.68h-12.4v32.57h-5.11v-32.57h-12.4v-4.68Z"/></g><g><path class="b" d="M801.76,485.26c0,25.07-8.11,38.06-15.46,44.71,23.13-3.01,46.42-21.47,46.42-47.01v-111.72h-30.96v114.02Z"/><polygon class="b" points="955.72 390.89 950.8 371.24 916.29 371.24 911.39 390.89 893.92 460.88 890.73 473.66 887.54 460.88 870.07 390.89 865.15 371.24 832.72 371.24 874.48 530.06 906.98 530.06 930.37 441.08 933.55 428.97 936.74 441.08 949.9 491.13 965.33 429.35 955.72 390.89"/><circle class="b" cx="752.68" cy="493.76" r="18.06" transform="translate(-128.69 676.84) rotate(-45)"/><path class="b" d="M1137.86,408.9c-6.67-11.95-15.97-21.22-27.92-27.8-11.95-6.58-25.78-9.86-41.51-9.86h-66.59l-4.9,19.65-27.11,108.61-1.66,6.61-.16-.23-6.12,24.18h30.63l35.32-134.33h40.14c10.57,0,19.88,2.31,27.9,6.93,8.02,4.62,14.22,11.11,18.61,19.52,4.38,8.39,6.58,18.04,6.58,28.93s-2.21,20.23-6.58,28.47c-4.39,8.25-10.56,14.64-18.51,19.17-7.93,4.55-17.12,6.81-27.55,6.81h-49l-6.44,24.52h54.99c15.73,0,29.64-3.33,41.74-9.98,12.1-6.65,21.48-16.04,28.14-28.14,6.65-12.1,9.98-26.01,9.98-41.74s-3.33-29.34-9.98-41.3Z"/></g><g><path class="b" d="M715.41,388.32c-1.45,0-2.77,.4-3.96,1.19l-100.79,53.27c-1.06,.79-1.85,1.65-2.38,2.58l-.79,1.58c-.66,1.85-.53,3.76,.4,5.74,.66,1.46,1.59,2.44,2.77,2.97l100.79,56.04c1.19,.79,2.38,1.19,3.56,1.19,2.64,0,4.69-1.25,6.14-3.76,1.05-1.58,1.35-3.37,.89-5.34-.46-1.98-1.62-3.5-3.47-4.55l-89.31-49.7,89.7-47.33c1.85-1.05,2.97-2.6,3.37-4.65,.4-2.04,.07-3.86-.99-5.44-1.46-2.51-3.43-3.76-5.94-3.76Z"/><path class="b" d="M1167.05,388.32c1.45,0,2.77,.4,3.96,1.19l100.79,53.27c1.06,.79,1.85,1.65,2.38,2.58l.79,1.58c.66,1.85,.53,3.76-.4,5.74-.66,1.46-1.59,2.44-2.77,2.97l-100.79,56.04c-1.19,.79-2.38,1.19-3.56,1.19-2.64,0-4.69-1.25-6.14-3.76-1.05-1.58-1.35-3.37-.89-5.34,.46-1.98,1.62-3.5,3.47-4.55l89.31-49.7-89.7-47.33c-1.85-1.05-2.97-2.6-3.37-4.65-.4-2.04-.07-3.86,.99-5.44,1.46-2.51,3.43-3.76,5.94-3.76Z"/></g></svg>